<mxfile host="app.diagrams.net" modified="2023-05-10T01:58:18.919Z" agent="Mozilla/5.0 (Windows NT 10.0; Win64; x64) AppleWebKit/537.36 (KHTML, like Gecko) Chrome/112.0.0.0 Safari/537.36" version="21.2.9" etag="O95zMcO0TWw8qzpxwqsC" type="github">
  <diagram name="Page-1" id="Nwcuu3WYNDAQH7-lcywO">
    <mxGraphModel>
      <root>
        <mxCell id="0" />
        <mxCell id="1" parent="0" />
      </root>
    </mxGraphModel>
  </diagram>
</mxfile>
